<svg id="Layer_1" data-name="Layer 1" xmlns="http://www.w3.org/2000/svg" viewBox="0 0 726 231"><defs><style>.cls-1{fill:#1d1d1b;}.cls-2{fill:#121212;}</style></defs><title>canonica_logo_sv</title><path class="cls-1" d="M73.58,67.85a19,19,0,0,1,6.29-6.29h2.86V83.28H78.15s-5.15-20-20.58-20c-9.15,0-18.29,9.15-18.29,38.87S48.42,141,60.43,141c10.86,0,21.15-10.29,21.15-21.72h2.86c0,13.15-11.43,24.58-26.29,24.58-24,0-38.86-14.86-38.86-41.72S34.13,60.42,55.4,60.42C66.14,60.42,73.58,67.85,73.58,67.85Z"/><path class="cls-1" d="M111.3,137l8.57,3.43v1.71H98.73v-1.71l9.15-3.43,31.44-76h3.43l32.58,77.74,5.72,1.71v1.71H167.31c-8.57,0-13.14-4.57-15.32-9.72L132.45,85.8Z"/><path class="cls-1" d="M648,137l8.57,3.43v1.71H635.45v-1.71L644.6,137,676,61h3.43L712,138.73l5.71,1.71v1.71H704c-8.57,0-13.15-4.57-15.32-9.72L669.17,85.8Z"/><path class="cls-1" d="M262.77,67.28l-9.14-3.43V62.14h21.72v1.72l-9.14,3.43v76.59h-3.43l-53.16-62.3V137l9.15,3.43v1.71H197v-1.71l9.15-3.43V66.14l-8-2.28V62.14h12c9.14,0,13.15,4.57,16,8L262.77,113Z"/><path class="cls-1" d="M461.68,67.28l-9.14-3.43V62.14h21.72v1.72l-9.15,3.43v76.59h-3.43l-53.16-62.3V137l9.15,3.43v1.71H396v-1.71L405.1,137V66.14l-8-2.28V62.14h12c9.14,0,13.14,4.57,16,8L461.68,113Z"/><path class="cls-1" d="M497.69,63.85V62.14h32.58v1.72l-6.86,1.72v73.16l6.86,1.71v1.71H497.69v-1.71l6.86-1.71V65.57Z"/><path class="cls-1" d="M610.3,67.85a19,19,0,0,1,6.29-6.29h2.86V83.28h-4.57s-5.14-20-20.58-20c-9.15,0-18.29,9.15-18.29,38.87S585.15,141,597.15,141c10.86,0,21.15-10.29,21.15-21.72h2.86c0,13.15-11.43,24.58-26.29,24.58-24,0-38.87-14.86-38.87-41.72s14.86-41.73,36.12-41.73C602.86,60.42,610.3,67.85,610.3,67.85Z"/><path class="cls-1" d="M335.36,143.87c-22.29,0-37.15-14.86-37.15-41.72s14.86-41.73,37.15-41.73,37.15,14.86,37.15,41.73S357.66,143.87,335.36,143.87Zm0-81.16c-8,0-17.15,9.14-17.15,39.44s9.15,39.44,17.15,39.44,17.15-9.15,17.15-39.44S343.37,62.71,335.36,62.71Z"/><path class="cls-2" d="M289.72,9.06a11,11,0,0,1,6.41-2,13.57,13.57,0,0,1,3.51.39c.86.22,1.4.32,1.65.36a.58.58,0,0,1,.57.61c0,.5.28,2.65.32,3s-.18.82-.47.82-.47-.25-.65-.72a10,10,0,0,0-.71-1.4A5.17,5.17,0,0,0,295.92,8a6.28,6.28,0,0,0-4.44,2.22,7.89,7.89,0,0,0-1.72,5,8.22,8.22,0,0,0,2.11,5.84,6.93,6.93,0,0,0,4.77,2.26,2.76,2.76,0,0,0,2-.57,1.18,1.18,0,0,0,.5-.79,8.21,8.21,0,0,0,.11-2.08c-.07-1.29-.43-1.68-2.11-2-.57-.11-.86-.32-.86-.54s.46-.43.93-.43c.89,0,2.47.11,3.33.11s1.4-.11,2.26-.11c.65,0,1,.07,1,.43s-.53.43-.82.54c-1,.25-1,.68-1,1.9,0,2.08,0,2,.25,2.26s.61.36.61.64-.25.39-.79.61a18.47,18.47,0,0,1-6,1.07,10.67,10.67,0,0,1-6.8-2.26,8.16,8.16,0,0,1-2.9-6.41A8.25,8.25,0,0,1,289.72,9.06Z"/><path class="cls-2" d="M325.3,14.94c1.54,0,1.72-.18,2.22-1.4.18-.32.43-.72.68-.72s.32.36.32.82c0,.25-.11.72-.11,1.65s.11,1.14.11,1.9-.22,1-.5,1-.4-.28-.57-.71c-.32-.72-.46-1-.79-1.18a14.57,14.57,0,0,0-3.12-.14c-.11,0-.29.25-.36.5a27.34,27.34,0,0,0,.07,5.12,1.87,1.87,0,0,0,.61.57,6.15,6.15,0,0,0,2.15.39,9.9,9.9,0,0,0,2.29-.22c1.11-.32,1.54-.5,2.58-2.11.29-.47.5-.72.71-.72s.36.61.36.79a12,12,0,0,1-1,3.15c-.14.25-.36.32-1.15.32-3.37,0-3.33-.18-8.24-.18-1.15,0-2.37.18-3.23.18-.46,0-1.07-.11-1.07-.47s.43-.5.82-.61c2-.47,2.08-.9,2.19-2.15.07-1,.11-3.3.11-5.63,0-1.65,0-3.47-.07-5,0-.75-.25-1.25-1.76-1.61-.43-.11-.86-.28-.86-.61s.39-.39,1-.39,1.79.14,3.15.14c6.88,0,7,0,7.88-.14a.4.4,0,0,1,.43.32c0,1,.25,2.55.25,3s-.25.64-.36.64-.46-.14-.75-.72c-.64-1.32-1.07-1.79-2.19-1.93a27.12,27.12,0,0,0-3.54-.14c-.14,0-.29.32-.32.46a48.94,48.94,0,0,0-.07,5.27c0,.18.14.36.43.43A15.13,15.13,0,0,0,325.3,14.94Z"/><path class="cls-2" d="M345.55,7.49c.82,0,3.22.21,4,.21.29,0,.47.14.72.47.68.86,1.47,1.65,2.4,2.72s5.63,6.16,7.45,8.1a.16.16,0,0,0,.25-.14c0-2,.21-6.66,0-8.38-.11-1-.5-1.61-2.22-2-.29-.11-.75-.25-.75-.57s.75-.39.86-.39c1.22,0,2.15.14,3,.14.71,0,1.61-.14,2.51-.14.35,0,.75.14.75.39s-.18.36-.75.57c-1.4.39-1.69.86-1.83,2.26s-.32,5.95-.32,8,.11,4.37.11,4.62c0,.57-.15,1-.47,1a2.34,2.34,0,0,1-1.07-.54c-.61-.72-2-2.62-4-4.73-1.65-1.79-4.15-4.87-6.27-7.09a.18.18,0,0,0-.32.14c0,1.22-.21,6.41,0,8.78.11,1.14.93,1.65,2,2,.39.14.64.29.64.54s-.5.46-.82.46c-.11,0-1.22-.11-2.22-.11s-2.4.21-3.19.21c-.46,0-.86-.11-.86-.46,0-.18.14-.32.82-.5,1.72-.43,1.94-1.07,2-2s.29-4.26.29-7.41c0-1.68,0-2.65-.07-2.94A3.78,3.78,0,0,0,347.06,9a3.19,3.19,0,0,0-1.47-.57c-.64-.11-.93-.29-.93-.57S345.09,7.49,345.55,7.49Z"/><path class="cls-2" d="M385.71,14.94c1.54,0,1.72-.18,2.22-1.4.18-.32.43-.72.68-.72s.32.36.32.82c0,.25-.11.72-.11,1.65s.11,1.14.11,1.9-.21,1-.5,1-.39-.28-.58-.71c-.32-.72-.47-1-.79-1.18a14.56,14.56,0,0,0-3.12-.14c-.11,0-.29.25-.36.5a27.53,27.53,0,0,0,.07,5.12,1.92,1.92,0,0,0,.61.57,6.17,6.17,0,0,0,2.15.39,9.93,9.93,0,0,0,2.29-.22c1.11-.32,1.54-.5,2.58-2.11.29-.47.5-.72.72-.72s.36.61.36.79a11.89,11.89,0,0,1-1,3.15c-.14.25-.35.32-1.14.32-3.37,0-3.33-.18-8.24-.18-1.14,0-2.36.18-3.22.18-.47,0-1.07-.11-1.07-.47s.43-.5.82-.61c2-.47,2.08-.9,2.19-2.15.07-1,.11-3.3.11-5.63,0-1.65,0-3.47-.07-5,0-.75-.25-1.25-1.75-1.61-.43-.11-.86-.28-.86-.61s.39-.39,1-.39,1.79.14,3.15.14c6.87,0,7,0,7.88-.14a.4.4,0,0,1,.43.32c0,1,.25,2.55.25,3s-.25.64-.36.64-.47-.14-.75-.72c-.64-1.32-1.08-1.79-2.18-1.93A27.22,27.22,0,0,0,384,8.71c-.14,0-.28.32-.32.46a49.49,49.49,0,0,0-.07,5.27c0,.18.15.36.43.43A15.08,15.08,0,0,0,385.71,14.94Zm-1.18-13a29,29,0,0,1,2,3c.25.54.11,1-.14,1a1.53,1.53,0,0,1-.86-.36,29.74,29.74,0,0,1-3.08-2.72c-.39-.46-.5-.72-.5-.89a1.9,1.9,0,0,1,.61-1,1.34,1.34,0,0,1,.75-.32C383.53.61,383.81.93,384.53,1.94Z"/><path class="cls-2" d="M405.6,7.45c.68,0,2.11.18,3.26.18s2.12-.11,2.94-.11.93.21.93.43-.25.39-.83.57c-1.39.29-1.32.9-1,1.72.47,1.15,1,2.62,1.75,4.44a41.81,41.81,0,0,0,2.11,4.69c.14.14.29.32.43-.07.43-1,2.79-6.8,3.37-8.45s.46-2-1-2.37c-.32-.11-.75-.36-.75-.57s.29-.39.86-.39c1,0,1.43.11,2.33.11,1.25,0,2.37-.18,2.94-.18.39,0,.79.11.79.36s-.43.5-.93.65c-1.14.29-1.83.86-2.72,2.54-.82,1.47-1.75,3.94-2.9,6.48-1.72,3.8-2.29,5.62-2.47,6.05s-.65,1-.93,1-.47-.39-.54-.72A31.16,31.16,0,0,0,411.94,20c-.83-1.9-3.33-7.88-4.41-10a2.89,2.89,0,0,0-2.19-1.61c-.32-.11-.79-.29-.79-.54S405.1,7.45,405.6,7.45Z"/><path class="cls-2" d="M444,14.94c1.54,0,1.72-.18,2.22-1.4.18-.32.43-.72.68-.72s.32.36.32.82c0,.25-.11.72-.11,1.65s.11,1.14.11,1.9-.21,1-.5,1-.39-.28-.57-.71c-.32-.72-.46-1-.79-1.18a14.56,14.56,0,0,0-3.12-.14c-.11,0-.29.25-.36.5a27.68,27.68,0,0,0,.07,5.12,1.94,1.94,0,0,0,.61.57,6.16,6.16,0,0,0,2.15.39,9.93,9.93,0,0,0,2.29-.22c1.11-.32,1.54-.5,2.58-2.11.29-.47.5-.72.72-.72s.36.61.36.79a12.06,12.06,0,0,1-1,3.15c-.14.25-.36.32-1.15.32-3.37,0-3.33-.18-8.24-.18-1.14,0-2.37.18-3.23.18-.46,0-1.08-.11-1.08-.47s.43-.5.83-.61c2-.47,2.08-.9,2.18-2.15.07-1,.11-3.3.11-5.63,0-1.65,0-3.47-.07-5,0-.75-.25-1.25-1.75-1.61-.43-.11-.86-.28-.86-.61s.39-.39,1-.39,1.79.14,3.15.14c6.88,0,7,0,7.88-.14a.4.4,0,0,1,.43.32c0,1,.25,2.55.25,3s-.25.64-.36.64-.47-.14-.75-.72C447.42,9.46,447,9,445.87,8.85a27.14,27.14,0,0,0-3.55-.14c-.14,0-.28.32-.32.46a49.84,49.84,0,0,0-.07,5.27c0,.18.14.36.43.43A15.11,15.11,0,0,0,444,14.94Z"/><path class="cls-2" d="M149.81,182.69a7.74,7.74,0,0,0-.12,1.94c.08,1.4.86,9.65,1.17,11.79.22,1.93.42,2.29,1.79,3.09.57.35.73.58.68.76a.72.72,0,0,1-.88.34c-1.65-.48-2.87-1-4-1.35-.83-.24-1.44-.31-2.54-.62-.52-.15-.76-.48-.69-.72s.35-.31,1-.28c1.1.06,1.61-.39,1.72-.8a17.44,17.44,0,0,0-.07-2.86c0-.23-.12-.37-.73-.59-.44-.16-2.81-.85-4-1.16-.66-.15-1-.25-1.13-.1a10.4,10.4,0,0,0-1.59,2.41c-.2.69-.08,1.06,1,1.73.34.25.7.42.6.77s-.5.3-.91.18c-.89-.26-1.59-.57-2.48-.83-1.13-.33-2-.41-2.91-.66-.31-.09-.65-.34-.57-.61s.46-.31,1-.31c1.29,0,1.86-.1,3.23-1.49.87-.94,5.63-6.8,6.4-7.77a11.47,11.47,0,0,0,1.44-2,1.44,1.44,0,0,1,.59-.5c.29-.25.79-.4,1.12-.64s.53-.29.71-.25A.5.5,0,0,1,149.81,182.69Zm-2.12,9c-.14-1.83-.45-5.13-.5-5.59,0,0-.23-.25-.33-.13-1.08,1.4-2.63,3.27-3.55,4.53,0,.1,0,.34.15.38a38.51,38.51,0,0,0,3.9,1.09C147.46,192,147.71,191.86,147.69,191.66Z"/><path class="cls-2" d="M167.56,187.55l2,.45c.84.19,2.23.36,5.13,1,2.27.52,3.69,1.4,4.24,2.34a3.68,3.68,0,0,1,.63,3,4.14,4.14,0,0,1-3.88,3.16c-.08,0-.22.14-.19.18a29.85,29.85,0,0,0,2.34,6,6.22,6.22,0,0,0,2.46,2.58c.5.23.59.32.52.63s-.95.44-2.24.15A5.49,5.49,0,0,1,174.8,204c-.47-.84-1.7-4.44-2.07-5.4a3,3,0,0,0-1.92-1.43.84.84,0,0,0-.61.12.43.43,0,0,0-.21.25c-.17.73-.56,2.59-.92,4.5-.21,1.06.36,1.33,1.2,1.82.26.13.64.41.58.68s-.71.35-1.05.27c-1.12-.26-1.83-.53-2.7-.73-1.08-.25-2.22-.25-3.31-.5-.6-.14-.91-.39-.85-.64s.39-.42,1-.43c1.66,0,2-.28,2.4-1.8.19-.69,1-3.7,1.78-7,.35-1.5.58-2.37.7-3.22s.19-1.32-1.49-2c-.5-.23-.8-.51-.75-.76S167.11,187.45,167.56,187.55Zm4.69,2.17a.62.62,0,0,0-.48.48c-.08.35-1.31,5.21-1.38,5.53a.37.37,0,0,0,.26.46,10.09,10.09,0,0,0,3.91.27,3.5,3.5,0,0,0,2.08-2.35c.33-1.47-.34-3.64-3.38-4.34A2.81,2.81,0,0,0,172.25,189.73Z"/><path class="cls-2" d="M201.41,194.69c4,.74,4.35.55,5.33.15.15,0,.51.2.43.63a33.53,33.53,0,0,0-.53,3.44c-.09.5-.46.72-.64.68s-.41-.33-.44-.74c-.29-2-.84-2.16-1.57-2.34a38.49,38.49,0,0,0-3.86-.61c-.14,0-.31.27-.37.44-.17.52-.89,4.43-1.56,8a16.42,16.42,0,0,0-.44,3.75c.06.85.35,1.05,1.73,1.71.61.26.82.52.77.76s-.58.37-1,.28c-1.48-.28-1.81-.48-3.5-.8-.92-.17-2.85-.35-3.73-.51-.49-.09-.84-.37-.79-.66s.61-.36,1.09-.38c2.06-.13,2.18-.54,2.51-1.91.68-3.08,1.47-6.73,2.23-10.82,0-.07-.07-.41-.27-.49a23.76,23.76,0,0,0-3.52-.87,2.32,2.32,0,0,0-2,1c-.54.56-.71.86-1,.8s-.35-.5-.29-.79c.16-.66.86-2.25,1-3.09a.69.69,0,0,1,.65-.54c.24,0,.44.37.55.54.26.34,1,.76,4.66,1.45Z"/><path class="cls-2" d="M217.24,197.27c.28.08,2.75.53,3.77.69a32.19,32.19,0,0,0,3.47.31c.26,0,.75.33.72.51s-.55.5-1,.5c-1.77.24-2,.5-2.23,1.76-.19.77-.46,2.57-.82,4.88-.31,2-.59,3.82-.66,4.57-.24,2,0,2.39,1.57,3,.41.17.75.51.71.83s-.4.26-.76.21c-1-.15-1.93-.41-3.45-.64-1-.15-2.93-.26-3.61-.37s-.83-.27-.79-.52.62-.49,1-.54c1.76-.16,2.14-.51,2.42-1.84.13-.63.33-1.73.52-2.89.57-3.72.94-6.2,1-6.77.13-1.54-.4-2.09-1.73-2.69-.6-.31-.68-.57-.64-.78S216.86,197.17,217.24,197.27Z"/><path class="cls-2" d="M245.5,201.29c.25.07.3.51.25.9a21.3,21.3,0,0,1-.33,2.31c-.19.66-.49.73-.6.72-.32,0-.41-.48-.46-.93a3.8,3.8,0,0,0-1-2.14,3.52,3.52,0,0,0-2-1,2.83,2.83,0,0,0-3.34,2.4c-.15,1.21.72,2.29,1.85,3.12s2,1.37,2.91,2.1a4.76,4.76,0,0,1,2.18,4.5,4.51,4.51,0,0,1-2.59,3.36,8.09,8.09,0,0,1-4.08.61,7.84,7.84,0,0,1-4.34-1.67,1,1,0,0,1-.3-.8c0-.43-.05-2.17,0-2.7s.37-.93.62-.9.38.44.47.85a11.58,11.58,0,0,0,.61,1.77,4.66,4.66,0,0,0,3.44,2.49,2.75,2.75,0,0,0,3.29-2.26c.17-1.39-.48-2.23-1.69-3.21-1-.78-1.88-1.39-2.6-2-1.18-1-2.64-2.57-2.37-4.71.34-2.67,2.79-4.34,6.34-3.9A18.75,18.75,0,0,1,245.5,201.29Z"/><path class="cls-2" d="M266.11,203.38a7.85,7.85,0,0,0,.24,1.93c.33,1.36,2.62,9.32,3.32,11.37.58,1.85.83,2.17,2.33,2.71.62.24.82.44.8.62a.72.72,0,0,1-.8.5c-1.71-.17-3-.47-4.19-.59-.86-.08-1.47,0-2.61-.15-.53-.05-.83-.33-.81-.58s.29-.36.91-.45c1.09-.15,1.51-.68,1.55-1.11a17.54,17.54,0,0,0-.59-2.79c-.05-.22-.18-.34-.82-.44-.46-.08-2.92-.32-4.13-.4-.68,0-1-.06-1.13.11a10.23,10.23,0,0,0-1.12,2.66c-.07.71.11,1.05,1.25,1.53.38.18.76.29.73.65s-.43.39-.86.35c-.93-.09-1.67-.27-2.59-.36-1.18-.11-2.08,0-3-.11-.32,0-.7-.21-.67-.5s.4-.39.91-.49c1.28-.2,1.8-.44,2.9-2.06.68-1.09,4.28-7.71,4.85-8.81a11.44,11.44,0,0,0,1-2.24,1.41,1.41,0,0,1,.49-.6c.24-.3.7-.54,1-.84s.47-.39.65-.37A.49.49,0,0,1,266.11,203.38Zm-.43,9.21c-.47-1.78-1.39-5-1.52-5.4,0,0-.27-.21-.35-.07-.8,1.57-2,3.69-2.66,5.1,0,.11.08.33.22.34a38.27,38.27,0,0,0,4,.36C265.5,212.93,265.73,212.77,265.68,212.59Z"/><path class="cls-2" d="M283,204.9c.82.05,3.2.43,4,.49.28,0,.45.17.68.51.62.91,1.35,1.75,2.21,2.88s5.19,6.53,6.87,8.59a.16.16,0,0,0,.26-.12c.17-2,.67-6.63.61-8.36,0-1-.39-1.64-2.08-2.15-.28-.13-.73-.3-.71-.62s.78-.34.89-.33c1.21.08,2.13.29,3,.35.71.05,1.62,0,2.51,0,.36,0,.74.19.73.44s-.2.34-.79.52c-1.42.29-1.74.74-2,2.13s-.73,5.91-.87,8-.19,4.36-.21,4.62c0,.57-.21,1-.53.93a2.33,2.33,0,0,1-1-.61c-.56-.76-1.82-2.74-3.64-5-1.52-1.9-3.81-5.14-5.77-7.51a.18.18,0,0,0-.33.12c-.12,1.21-.66,6.38-.64,8.75,0,1.15.82,1.71,1.86,2.14.39.17.63.33.61.58s-.53.43-.85.41c-.11,0-1.21-.19-2.21-.26s-2.41.05-3.2,0c-.46,0-.85-.17-.82-.52,0-.18.17-.31.86-.45,1.74-.31,2-.94,2.17-1.82s.58-4.23.79-7.37c.12-1.68.15-2.65.13-2.94a3.8,3.8,0,0,0-1.16-1.8,3.21,3.21,0,0,0-1.43-.67c-.64-.15-.91-.35-.89-.64S282.49,204.86,283,204.9Z"/><path class="cls-2" d="M328.5,209.24a11.11,11.11,0,0,1,7.16-2.14,21,21,0,0,1,5.14.93c.14,0,.33.94.33,1,0,.93.15,2.59.14,2.8a.64.64,0,0,1-.59.66c-.15,0-.21-.11-.35-.47a8.57,8.57,0,0,0-1.09-2.11,5.77,5.77,0,0,0-4.11-1.76,6.41,6.41,0,0,0-4.28,1.6,8.78,8.78,0,0,0,0,11.26,7.41,7.41,0,0,0,4.56,2.24,4.5,4.5,0,0,0,4-1.72,13.75,13.75,0,0,0,.86-1.27,1.37,1.37,0,0,1,1-.73c.14,0,.28.3.24.4-.31.89-.86,2.84-1.06,3.31a2.1,2.1,0,0,1-.84.55,14.88,14.88,0,0,1-4.78.63,10.57,10.57,0,0,1-7.23-3,8.36,8.36,0,0,1,.94-12.2Z"/><path class="cls-2" d="M353.1,207.87c.89,0,1.9.12,3.08.13s2.26-.1,3.23-.09c.5,0,.79.15.78.43s-.22.39-.79.57c-1.18.35-1.69.63-1.76,1.21a39.24,39.24,0,0,0-.1,4.69c0,.11.14.39.32.39l3.69,0c1.54,0,3.8.05,4.33.05.21,0,.39-.07.44-1,0-1.11,0-2.87-.05-3.87s-.24-1.22-1.18-1.51c-.68-.18-.89-.4-.89-.72,0-.11.07-.29.89-.28s1.25.12,2.69.12c1,0,2.4-.06,3.37-.13.32,0,.57,0,.57.29s-.25.54-.83.71c-1.19.39-1.58.56-1.66,1.53s-.17,5.05-.18,7c0,.39,0,1.54,0,2.26,0,2.79.34,3.15,1.84,3.63.79.22.89.54.89.72s-.25.32-.58.32c-1,0-1.36-.15-3.54-.16-1,0-2,.1-3,.09-.68,0-1-.08-1-.47,0-.21.29-.43.86-.57,1.15-.39,1.54-.56,1.62-1.28s.13-4.22.1-4.62,0-.39-.36-.47a66.33,66.33,0,0,0-8-.11.51.51,0,0,0-.43.36,24.85,24.85,0,0,0,0,4.3c.1,1.29.39,1.4,1.5,1.83.43.14.71.33.71.5s-.18.5-.82.5c-1.58,0-2.37-.12-3.47-.12-1.29,0-1.79.1-2.8.09-.64,0-.93-.22-.93-.47s.29-.39.75-.53c1.43-.39,1.94-.56,2.09-1.49s.16-3,.17-4.73c0-3.54,0-5.52-.08-6.48-.07-.75-.28-1.29-1.6-1.65-.61-.18-.86-.36-.86-.65S352.53,207.87,353.1,207.87Z"/><path class="cls-2" d="M400.25,215.23a8.33,8.33,0,0,1-2.68,6.81,9.15,9.15,0,0,1-5.71,2.31c-5.91.16-9.32-4.09-9.44-8.39a8.29,8.29,0,0,1,2.41-6.23,9.14,9.14,0,0,1,6.24-2.68C396.08,206.92,400.12,210.54,400.25,215.23Zm-13-5.39c-.87,1-1.69,2.63-1.6,5.67.13,5,3.87,7.82,6.27,7.75a4.94,4.94,0,0,0,3.85-2.08c.93-1.28,1.3-3.51,1.24-5.7s-1.78-7.51-6.37-7.39A5,5,0,0,0,387.27,209.85Z"/><path class="cls-2" d="M414.12,208.53a11.08,11.08,0,0,1,7-2.71,20.93,20.93,0,0,1,5.2.51c.14,0,.41.91.41.95.05.93.35,2.56.37,2.78a.64.64,0,0,1-.54.71c-.14,0-.22-.1-.38-.45a8.75,8.75,0,0,0-1.25-2,5.77,5.77,0,0,0-4.24-1.42,6.4,6.4,0,0,0-4.13,1.95,8.09,8.09,0,0,0-1.61,5.43,8.18,8.18,0,0,0,2.5,5.78,7.42,7.42,0,0,0,4.73,1.86,4.52,4.52,0,0,0,3.84-2,13.9,13.9,0,0,0,.75-1.33,1.36,1.36,0,0,1,.92-.8c.14,0,.3.27.27.38-.24.91-.63,2.91-.78,3.38a2.17,2.17,0,0,1-.79.62,14.82,14.82,0,0,1-4.72,1,10.56,10.56,0,0,1-7.45-2.36,8.36,8.36,0,0,1-.05-12.23Z"/><path class="cls-2" d="M455.92,211.72a8.33,8.33,0,0,1-2.31,7,9.12,9.12,0,0,1-5.57,2.62c-5.9.48-9.54-3.57-9.89-7.85a8.27,8.27,0,0,1,2.07-6.36,9.13,9.13,0,0,1,6.08-3C451.29,203.65,455.53,207,455.92,211.72Zm-13.26-4.66c-.82,1-1.54,2.72-1.29,5.76.42,5,4.3,7.59,6.69,7.4a4.93,4.93,0,0,0,3.73-2.29c.86-1.33,1.11-3.58.93-5.76s-2.19-7.41-6.77-7A5,5,0,0,0,442.66,207.06Z"/><path class="cls-2" d="M466.46,202.64c.46,0,1.51,0,3.11-.21,1.21-.13,2.73-.38,3.68-.56.28-.07.55.08.57.26s-.22.57-1.06.88-1.42.88-1.42,1.49c0,1.4.52,6.21.78,8.56.13,1.17.33,2.27.51,3.29a1.05,1.05,0,0,0,.87.66,14.52,14.52,0,0,0,3.28-.33,2.71,2.71,0,0,0,1.51-.64,7.26,7.26,0,0,0,1.52-2.22c.35-.72.59-.89.83-.92s.39.6.29.94a28,28,0,0,0-1,3.14,1.12,1.12,0,0,1-.43.7,12.18,12.18,0,0,1-2.23.32c-1.36.15-3.08.17-5.58.45s-2.76.45-4,.59c-.6.07-1-.07-1-.32s.16-.52.92-.75c1.78-.49,1.95-1.26,1.92-2.2,0-.71,0-1.37-.59-6.21-.16-1.39-.33-2.89-.52-4.27-.16-1.06-.52-1.46-1.8-1.6-.94-.07-1.09-.38-1.12-.63S465.85,202.7,466.46,202.64Z"/><path class="cls-2" d="M498.13,198.68a7.94,7.94,0,0,0,.69,1.82c.65,1.25,4.75,8.44,5.91,10.27,1,1.67,1.32,1.91,2.9,2.08.66.08.9.23.93.41s-.27.62-.66.67c-1.7.24-3,.25-4.21.42-.85.12-1.44.31-2.58.47-.53.08-.88-.13-.92-.37s.2-.43.77-.65c1-.4,1.3-1,1.24-1.44a17.26,17.26,0,0,0-1.24-2.57c-.1-.2-.26-.29-.9-.23-.47,0-2.91.38-4.11.58-.67.13-1,.18-1.07.37a10.25,10.25,0,0,0-.46,2.85c.1.71.36,1,1.58,1.19.41.09.81.1.86.46s-.33.48-.76.54c-.92.13-1.68.13-2.6.26-1.17.17-2,.47-2.92.6-.32,0-.73,0-.77-.32s.29-.48.77-.69c1.19-.5,1.65-.85,2.33-2.69.41-1.21,2.33-8.51,2.63-9.71a11.6,11.6,0,0,0,.49-2.42,1.4,1.4,0,0,1,.33-.7c.17-.35.56-.69.76-1s.36-.48.54-.51A.49.49,0,0,1,498.13,198.68Zm1.76,9c-.88-1.61-2.52-4.49-2.76-4.89,0,0-.31-.14-.36,0-.41,1.72-1,4.06-1.38,5.59,0,.11.15.3.29.28a37.76,37.76,0,0,0,4-.61C499.8,208.11,500,207.9,499.89,207.73Z"/><path class="cls-2" d="M523.12,194.78c4-.71,4.26-1,5-1.73.13-.09.55,0,.62.44a34.09,34.09,0,0,0,.71,3.41.73.73,0,0,1-.36.86c-.25,0-.5-.17-.67-.54-1-1.72-1.54-1.73-2.29-1.63s-2.72.48-3.83.79c-.14,0-.19.36-.19.54,0,.54.71,4.46,1.35,8.06a16.51,16.51,0,0,0,.9,3.66c.35.77.7.86,2.22,1,.66,0,.94.2,1,.44s-.41.54-.87.63c-1.48.26-1.86.18-3.56.48-.92.16-2.79.68-3.67.83-.5.09-.92-.05-1-.34s.45-.55.89-.74c1.89-.84,1.85-1.27,1.68-2.66-.44-3.12-1-6.81-1.71-10.91,0-.07-.21-.36-.43-.36a23.49,23.49,0,0,0-3.6.42c-.66.19-1.1.59-1.53,1.65-.31.71-.36,1-.64,1.1s-.5-.35-.55-.63c-.08-.68,0-2.4-.13-3.25a.69.69,0,0,1,.42-.73c.25,0,.54.2.71.31.37.23,1.16.38,4.87-.28Z"/><path class="cls-2" d="M538.76,191.65c.29,0,2.75-.48,3.77-.7a31.25,31.25,0,0,0,3.35-.94c.24-.09.82,0,.85.22s-.33.66-.74.82c-1.58.85-1.66,1.16-1.46,2.43.1.79.48,2.57,1,4.85.43,2,.81,3.78,1,4.51.5,2,.81,2.24,2.54,2.27.44,0,.89.21,1,.53s-.28.39-.63.46c-1,.21-1.95.31-3.46.63-1,.22-2.83.79-3.5.93s-.87,0-.92-.21.4-.67.7-.84c1.59-.78,1.82-1.23,1.61-2.58-.1-.64-.3-1.73-.55-2.88-.79-3.68-1.32-6.13-1.47-6.68-.43-1.49-1.12-1.81-2.57-1.9-.68-.08-.84-.3-.88-.51S538.37,191.69,538.76,191.65Z"/><path class="cls-2" d="M565.7,193c1.49-.39,1.62-.6,1.81-1.91.09-.36.24-.8.48-.86s.4.26.52.72c.06.24.08.72.31,1.62s.39,1.09.58,1.81,0,1-.24,1.1-.45-.18-.73-.55c-.49-.61-.71-.89-1.06-1a14.64,14.64,0,0,0-3.06.64c-.1,0-.22.31-.22.57a27.44,27.44,0,0,0,1.34,4.95,1.93,1.93,0,0,0,.73.4,6.16,6.16,0,0,0,2.18-.15,10,10,0,0,0,2.17-.78c1-.59,1.37-.87,2-2.69.16-.52.31-.82.51-.87s.5.5.55.67a12.2,12.2,0,0,1-.15,3.3c-.08.28-.27.4-1,.6-3.26.84-3.27.66-8,1.88-1.11.29-2.25.76-3.08,1-.45.11-1.07.16-1.16-.19s.29-.59.65-.8c1.83-1,1.79-1.38,1.58-2.63-.17-1-.72-3.22-1.29-5.48-.41-1.6-.87-3.37-1.32-4.84-.22-.72-.55-1.15-2.1-1.12-.44,0-.9-.07-1-.38s.28-.48.84-.62,1.77-.31,3.09-.65c6.67-1.71,6.81-1.71,7.6-2.1a.41.41,0,0,1,.5.21c.26,1,.88,2.4,1,2.89s-.08.69-.19.71-.49,0-.91-.51c-1-1.12-1.49-1.47-2.6-1.33a26.61,26.61,0,0,0-3.47.74c-.14,0-.2.38-.2.53a47.9,47.9,0,0,0,1.24,5.12.48.48,0,0,0,.52.31A15.37,15.37,0,0,0,565.7,193Z"/><path class="cls-2" d="M580.65,181.27l1.91-.62c.82-.26,2.1-.83,4.93-1.75,2.22-.72,3.88-.7,4.84-.18a3.68,3.68,0,0,1,2.1,2.29,4.14,4.14,0,0,1-1.71,4.7c-.06.06-.12.23-.07.25a29.94,29.94,0,0,0,5.09,4,6.21,6.21,0,0,0,3.44,1c.54-.06.67,0,.77.28s-.58.87-1.84,1.28a5.48,5.48,0,0,1-4.81-.77c-.83-.48-3.74-2.92-4.55-3.57a3,3,0,0,0-2.37-.25.84.84,0,0,0-.47.42.45.45,0,0,0,0,.32c.23.71.85,2.51,1.52,4.33.37,1,1,1,2,.94.3,0,.76,0,.85.29s-.42.67-.77.78c-1.09.35-1.84.48-2.69.76-1.06.34-2,.92-3.09,1.27-.58.19-1,.13-1.05-.11s.11-.57.65-.89c1.41-.87,1.55-1.26,1.13-2.78-.19-.69-1-3.7-2.05-6.9-.48-1.47-.72-2.33-1.05-3.12s-.51-1.23-2.31-.95c-.54.07-1,0-1-.27S580.21,181.42,580.65,181.27Zm5.14-.54a.61.61,0,0,0-.16.66c.11.34,1.56,5.14,1.66,5.45a.37.37,0,0,0,.46.27,10.13,10.13,0,0,0,3.49-1.78,3.49,3.49,0,0,0,.58-3.09c-.47-1.43-2.17-2.95-5.13-2A2.75,2.75,0,0,0,585.79,180.73Z"/></svg>