<svg id="Layer_1" data-name="Layer 1" xmlns="http://www.w3.org/2000/svg" viewBox="0 0 726 203"><defs><style>.cls-1{fill:#231f20;}.cls-2{fill:#ff6b00;}.cls-3{fill:#fff;}</style></defs><title>easy_break</title><path class="cls-1" d="M419,144.57h6.77q5.7,0,8-3.92t2.28-14V116.5q0-9.55-1.86-13.5t-7.12-4h-8Zm0-59.83h7q4.91,0,6.45-3.14T434,68.7V61.15q-.07-7.27-2-9.72T425.42,49H419Zm33.84-18.52q0,20.23-11,24.86,13.38,4.48,13.39,29.56v3.2q-.14,18.87-6.59,27.21t-21,8.33H399.92V34h27.14q14,0,19.88,6.52t5.91,21.83Z"/><path class="cls-1" d="M507.34,51.25q.29,0,.28,12l-.07,4a33.65,33.65,0,0,0-11.19,1.92q-5.49,1.92-7.2,5.49v84.77h-19V52.54h19V64.43a18,18,0,0,1,6.52-9.72,19,19,0,0,1,11.65-3.46"/><path class="cls-1" d="M536.26,96.2H551.5V82.52q0-8.76-1.39-12.57a5.47,5.47,0,0,0-5.66-3.81h-.07q-7.4,0-8,11.33-.14,2.14-.14,5.56Zm7.55,64.47q-18,0-23.22-13.75-3.28-8.76-3.28-23.08V84q0-32.76,27.28-32.77,14.53,0,20.12,8.62t5.59,24.5v22.87h-34v21q0,11.12,1.92,14.14a6.38,6.38,0,0,0,5.77,3q3.84,0,5-1.78a14.52,14.52,0,0,0,2.21-6.41q.28-3.27.29-9v-9.4h18.66v5.7q0,14.53-2.28,20.87t-5.27,9.19q-6.27,6.06-18.81,6.06"/><path class="cls-1" d="M619.81,101.4q-9,4-12.11,7.55t-3.13,11v11.47q0,7.48,1.56,10.72a5.29,5.29,0,0,0,5.1,3.24A7.59,7.59,0,0,0,617,143a10.68,10.68,0,0,0,2.81-5.38Zm-14.89,59.05q-10.47,0-15-7.52t-4.63-21.62v-6.84q0-13.68,7.4-20.73,4.78-4.63,16.17-9l5.74-2.14q3.67-1.35,5.16-1.92V81.38q0-8.69-1.25-11.78t-5.7-3.1q-4.45,0-5.95,3.28t-1.49,11v4.77H586.76V82.38q0-15.17,5.66-23.15t20.09-8q14.42,0,20.51,8t6.1,23.93v76.22h-19V148.77a16.7,16.7,0,0,1-5.45,8.3,14.62,14.62,0,0,1-9.72,3.38"/><polygon class="cls-1" points="656.99 159.38 656.99 32.95 675.87 32.95 675.87 101.11 694.11 52.54 713.26 52.54 692.68 105.11 714.48 159.38 695.24 159.38 675.87 108.59 675.87 159.38 656.99 159.38"/><path class="cls-2" d="M34.05,126.33V78.43A20.69,20.69,0,0,1,54.72,57.76h20.1V147H54.72a20.69,20.69,0,0,1-20.67-20.67M74.83,4.87V35.23H54.72a43.25,43.25,0,0,0-43.2,43.2v47.9a43.25,43.25,0,0,0,43.2,43.2H75a31.94,31.94,0,0,0,31.76,28.6H334.55a31.93,31.93,0,0,0,31.94-31.93V4.87Z"/><polygon class="cls-3" points="102.66 155.97 102.66 30.6 144.69 30.6 144.69 47.06 121.75 47.06 121.75 83.53 143.55 83.53 143.55 99.62 121.75 99.62 121.75 139.51 145.54 139.51 145.54 155.97 102.66 155.97"/><path class="cls-3" d="M193.48,98q-9,4-12.11,7.55t-3.13,11V128q0,7.48,1.57,10.72A5.29,5.29,0,0,0,184.9,142a7.56,7.56,0,0,0,5.77-2.39,10.66,10.66,0,0,0,2.81-5.38ZM178.6,157q-10.47,0-15-7.51T159,127.9v-6.84q0-13.68,7.41-20.73,4.77-4.63,16.17-9l5.73-2.14,5.17-1.92V78q0-8.68-1.25-11.78c-.83-2.07-2.73-3.1-5.7-3.1s-5,1.1-5.95,3.27-1.5,5.87-1.5,11v4.77H160.43V79q0-15.17,5.66-23.15t20.09-8q14.42,0,20.52,8t6.09,23.93V156h-19V145.35a16.74,16.74,0,0,1-5.45,8.3A14.6,14.6,0,0,1,178.6,157"/><path class="cls-3" d="M227.1,74.05q0-26.21,25.22-26.21,12.54,0,18.34,7.16t5.81,23.83v5.84H259.59V77.61q0-7.25-1.64-10.79a5.61,5.61,0,0,0-5.45-3.53q-3.81,0-5.62,2.21t-1.82,7.55q0,8.47,7.55,15.74L262.72,98q15.6,14.53,15.6,32,0,13.68-6.2,20.51t-19.23,6.84q-13,0-19.23-7.45t-6.2-23.9v-6.91H245.2v8.62q0,14.25,7.27,14.25,3.84,0,5.55-2.53t1.71-8.58q0-10.68-9.83-19.8-.28-.28-4.6-4.14t-5-4.56q-13.18-12-13.18-28.28"/><path class="cls-3" d="M289.29,174.85v-13h6.2a20.73,20.73,0,0,0,5.52-.57,2.67,2.67,0,0,0,2.17-2.28,5.69,5.69,0,0,0,.42-2.64,36.58,36.58,0,0,0-.49-5.2L286,49.05h18l6.84,54.7,2.85,28.78h1.57l2.56-28.78,6.27-54.7h17.88L323.41,160.53q-1.21,8.05-4.06,11.18t-10,3.14Z"/></svg>