<svg id="Layer_1" data-name="Layer 1" xmlns="http://www.w3.org/2000/svg" viewBox="0 0 726 203"><defs><style>.cls-1{fill:#231f20;}.cls-2{fill:#ff6b00;}.cls-3{fill:#fff;}</style></defs><title>easy_break_nd</title><path class="cls-1" d="M417.75,143.38h6.75q5.68,0,8-3.91t2.28-14V115.4q0-9.52-1.85-13.46T425.77,98h-8Zm0-59.65h7q4.9,0,6.43-3.13t1.53-12.85V60.22q-.07-7.24-2-9.69t-6.61-2.45h-6.39Zm33.73-18.46q0,20.17-10.94,24.78,13.34,4.47,13.35,29.47v3.19q-.14,18.82-6.57,27.13t-21,8.31H398.72v-125h27.05q14,0,19.82,6.5t5.9,21.76Z"/><path class="cls-1" d="M505.81,50.35q.28,0,.28,11.93l-.07,4a33.55,33.55,0,0,0-11.15,1.92q-5.47,1.92-7.17,5.47v84.5h-19V51.63h19V63.49a17.94,17.94,0,0,1,6.5-9.69,19,19,0,0,1,11.61-3.45"/><path class="cls-1" d="M534.64,95.16h15.2V81.52q0-8.74-1.39-12.54a5.46,5.46,0,0,0-5.64-3.8h-.07q-7.38,0-8,11.29-.14,2.13-.14,5.54Zm7.53,64.27q-18,0-23.15-13.71-3.27-8.74-3.27-23V83q0-32.66,27.2-32.67,14.48,0,20.06,8.59t5.57,24.43v22.8H534.71v20.95q0,11.08,1.91,14.1a6.36,6.36,0,0,0,5.76,3q3.83,0,5-1.78a14.47,14.47,0,0,0,2.21-6.39q.28-3.26.28-8.95v-9.37h18.6v5.68q0,14.49-2.27,20.81t-5.26,9.16q-6.25,6-18.75,6"/><path class="cls-1" d="M617.93,100.34q-8.95,4-12.07,7.53t-3.12,11v11.43q0,7.46,1.56,10.69a5.28,5.28,0,0,0,5.08,3.23,7.56,7.56,0,0,0,5.76-2.38,10.65,10.65,0,0,0,2.8-5.36Zm-14.84,58.87q-10.44,0-14.91-7.49t-4.61-21.55v-6.81q0-13.64,7.38-20.66,4.76-4.61,16.12-8.95l5.72-2.13q3.66-1.34,5.15-1.91V80.38q0-8.66-1.24-11.75T611,65.54q-4.44,0-5.93,3.27t-1.49,11v4.76H585v-3.2q0-15.12,5.64-23.08t20-7.95q14.38,0,20.45,7.95t6.08,23.86v76h-19V147.56a16.65,16.65,0,0,1-5.43,8.27,14.58,14.58,0,0,1-9.69,3.37"/><polygon class="cls-1" points="655 158.15 655 32.1 673.82 32.1 673.82 100.06 692 51.63 711.1 51.63 690.58 104.03 712.31 158.15 693.13 158.15 673.82 107.51 673.82 158.15 655 158.15"/><path class="cls-2" d="M34,125.19V77.44a20.63,20.63,0,0,1,20.61-20.6h20v89h-20A20.63,20.63,0,0,1,34,125.19M74.63,4.11V34.37h-20A43.12,43.12,0,0,0,11.52,77.44v47.75a43.12,43.12,0,0,0,43.07,43.07H74.8a31.85,31.85,0,0,0,31.67,28.51H333.55a31.84,31.84,0,0,0,31.84-31.83V4.11Z"/><polygon class="cls-3" points="102.38 154.74 102.38 29.76 144.28 29.76 144.28 46.17 121.41 46.17 121.41 82.52 143.14 82.52 143.14 98.57 121.41 98.57 121.41 138.34 145.13 138.34 145.13 154.74 102.38 154.74"/><path class="cls-3" d="M192.92,96.94q-9,4-12.07,7.52t-3.13,11v11.44q0,7.45,1.56,10.69a5.27,5.27,0,0,0,5.08,3.23,7.53,7.53,0,0,0,5.75-2.38,10.62,10.62,0,0,0,2.81-5.36Zm-14.84,58.87q-10.44,0-14.91-7.49t-4.62-21.55v-6.81q0-13.63,7.38-20.67,4.76-4.61,16.12-8.95l5.72-2.13,5.15-1.92V77q0-8.66-1.24-11.75c-.83-2.06-2.73-3.09-5.68-3.09s-4.94,1.09-5.93,3.26-1.49,5.85-1.49,11v4.75H160V78q0-15.13,5.64-23.08t20-8q14.38,0,20.45,8t6.07,23.85v76h-19V144.16a16.68,16.68,0,0,1-5.43,8.27,14.55,14.55,0,0,1-9.69,3.37"/><path class="cls-3" d="M226.44,73.08q0-26.13,25.14-26.13,12.5,0,18.29,7.13t5.79,23.76v5.82H258.82v-7q0-7.23-1.63-10.76a5.59,5.59,0,0,0-5.43-3.52q-3.8,0-5.61,2.2t-1.81,7.53q0,8.45,7.53,15.69l10.09,9.16q15.55,14.48,15.55,31.88,0,13.63-6.18,20.45t-19.18,6.82q-13,0-19.17-7.42t-6.18-23.82V118h17.68v8.59q0,14.2,7.25,14.2,3.83,0,5.54-2.52t1.7-8.56q0-10.65-9.8-19.74-.28-.28-4.58-4.12t-5-4.55q-13.14-12-13.14-28.19"/><path class="cls-3" d="M288.43,173.56v-13h6.18a20.67,20.67,0,0,0,5.5-.57,2.66,2.66,0,0,0,2.17-2.27,5.67,5.67,0,0,0,.42-2.63,36.46,36.46,0,0,0-.49-5.18l-17-101.76h17.9l6.81,54.53,2.84,28.69h1.56l2.56-28.69,6.25-54.53h17.83L322.45,159.29q-1.21,8-4,11.14t-9.94,3.13Z"/><path class="cls-2" d="M533.85,182.33c-.15-4.76-1.55-5.87-3.69-5.87-2.58,0-4.57,2.29-4.57,8.63s2,8.63,4.57,8.63c2.91,0,3.54-2.8,3.69-5.64h5.75c0,6.05-3.47,10.81-9.89,10.81-6,0-9.89-4.5-9.89-13.8s3.91-13.8,9.89-13.8c6.6,0,10,4.83,9.89,11Z"/><path class="cls-2" d="M566.2,171.3c6.71,0,10,5.46,10,13.8s-3.32,13.8-10,13.8-10-5.46-10-13.8S559.48,171.3,566.2,171.3Zm0,22.43c2.88,0,4.28-2.36,4.28-8.63s-1.4-8.63-4.28-8.63-4.28,2.36-4.28,8.63S563.32,193.73,566.2,193.73Z"/><path class="cls-2" d="M593.6,171.74h8.85c4.8,0,8,4,8,8.6,0,3-1.59,6.79-5.53,7.34l6.71,10.77h-6.42l-5.9-10.4h-.07v10.4H593.6Zm5.61,11.81h1.85c2.29,0,3.61-1.11,3.61-3.32s-1.33-3.32-3.61-3.32h-1.85Z"/><path class="cls-2" d="M645.65,171.74v26.71h-4.72L633,180.67H633v17.78H628V171.74h5.24l7.38,16.38h.07V171.74Z"/><path class="cls-2" d="M664.5,198.45V171.74h13.28v5.17H670.1v4.94h7.67V187H670.1v6.27h7.67v5.17Z"/><path class="cls-2" d="M696.48,171.74h8.85c4.8,0,8,4,8,8.6,0,3-1.59,6.79-5.53,7.34l6.71,10.77h-6.42l-5.9-10.4h-.07v10.4h-5.61Zm5.61,11.81h1.85c2.29,0,3.61-1.11,3.61-3.32s-1.33-3.32-3.61-3.32h-1.85Z"/></svg>