<svg id="Layer_1" data-name="Layer 1" xmlns="http://www.w3.org/2000/svg" viewBox="0 0 82.63 43"><defs><style>.cls-1{fill:#272f34;}</style></defs><title>Untitled-1</title><path class="cls-1" d="M73.64,13.52,56.21,23.16,42.4,20.82a5.44,5.44,0,0,1-4.3-3.87l15,2.45a5.39,5.39,0,0,0,6.06-4A5.36,5.36,0,0,0,55,8.85L33.24,4.47A15.66,15.66,0,0,0,22.6,6.12l-19.9,11A1.77,1.77,0,0,0,2,19.5L13.22,40.34a1.77,1.77,0,0,0,1.12.88,1.8,1.8,0,0,0,.43.05,1.78,1.78,0,0,0,1-.29L25,34.87l25.79,3.9A12,12,0,0,0,59.06,37L79.8,23.93a6.05,6.05,0,0,0-6.16-10.41ZM79,19.36a2.49,2.49,0,0,1-1.11,1.57L57.17,34a8.5,8.5,0,0,1-5.8,1.22l-26.46-4a1.77,1.77,0,0,0-1.24.27L15.42,37,5.95,19.37,24.31,9.22a12.12,12.12,0,0,1,8.23-1.27l21.81,4.37a1.82,1.82,0,0,1,1.41,2.22,1.83,1.83,0,0,1-2.05,1.36L36.43,13.09a1.77,1.77,0,0,0-2,1.59,9,9,0,0,0,7.42,9.63l14.42,2.44a1.77,1.77,0,0,0,1.15-.2l18-9.94A2.51,2.51,0,0,1,79,19.36Zm0,0"/></svg>